<svg width="26" height="26" viewBox="0 0 26 26" fill="none" xmlns="http://www.w3.org/2000/svg">
<path d="M9.64608 24.4116C8.62952 25.3863 7.31928 25.9119 5.98795 25.9899H5.31024C3.97741 25.9133 2.66867 25.3863 1.65211 24.4116C0.593374 23.3965 0.0436747 22.0811 0 20.7526V20.4061C0.0436747 19.0776 0.593375 17.7622 1.6506 16.7485L1.65361 16.7456C3.85994 14.6302 7.43976 14.6317 9.64608 16.7471C11.8539 18.8639 11.8524 22.2962 9.64608 24.4116ZM26 25.9899L19.3057 15.1515H9.78012C10.0708 15.3536 10.3464 15.5803 10.6054 15.8287C12.244 17.3997 12.9006 19.5628 12.5723 21.6074C12.3554 22.972 11.6988 24.2831 10.6054 25.3329C10.3539 25.574 10.0858 25.7949 9.80271 25.9913H26V25.9899ZM9.64608 16.7485C7.43976 14.6331 3.85994 14.6317 1.65361 16.7471L1.6506 16.75C0.593375 17.7636 0.0436747 19.0791 0 20.4075V20.7541C0.0436747 22.0825 0.593374 23.3979 1.65211 24.4131C2.66867 25.3877 3.97741 25.9148 5.31024 25.9913C5.53614 26.0014 5.76054 26.0043 5.98795 25.9913C7.31928 25.9133 8.62952 25.3877 9.64608 24.4131C11.8524 22.2977 11.8539 18.8654 9.64608 16.7485ZM19.1205 0L4.57982 13.9386C4.93223 13.8866 5.28765 13.8606 5.6491 13.8606C7.15512 13.8606 8.58885 14.3125 9.78012 15.1515C10.0708 15.3536 10.3464 15.5803 10.6054 15.8287C12.244 17.3997 12.9006 19.5628 12.5723 21.6074L19.1205 0ZM9.64608 16.7485C7.43976 14.6331 3.85994 14.6317 1.65361 16.7471L1.6506 16.75C0.593375 17.7636 0.0436747 19.0791 0 20.4075V20.7541C0.0436747 22.0825 0.593374 23.3979 1.65211 24.4131C2.66867 25.3877 3.97741 25.9148 5.31024 25.9913C5.53614 26.0014 5.76054 26.0043 5.98795 25.9913C7.31928 25.9133 8.62952 25.3877 9.64608 24.4131C11.8524 22.2977 11.8539 18.8654 9.64608 16.7485ZM9.64608 16.7485C7.43976 14.6331 3.85994 14.6317 1.65361 16.7471L1.6506 16.75C0.593375 17.7636 0.0436747 19.0791 0 20.4075V20.7541C0.0436747 22.0825 0.593374 23.3979 1.65211 24.4131C2.66867 25.3877 3.97741 25.9148 5.31024 25.9913C5.53614 26.0014 5.76054 26.0043 5.98795 25.9913C7.31928 25.9133 8.62952 25.3877 9.64608 24.4131C11.8524 22.2977 11.8539 18.8654 9.64608 16.7485Z" fill="black"/>
</svg>
